<svg width="50" height="50" viewBox="0 0 50 50" fill="none" xmlns="http://www.w3.org/2000/svg">
<g id="logo">
<rect id="Rectangle 1" width="50" height="50" rx="10" fill="#0CCC83" fill-opacity="0.7"/>
<path id="path54" fill-rule="evenodd" clip-rule="evenodd" d="M31.8728 27.9777C31.4996 27.7918 29.6646 26.8931 29.3224 26.7692C28.9803 26.6453 28.7316 26.5833 28.4828 26.9551C28.2339 27.327 27.5187 28.1636 27.3009 28.4116C27.0832 28.6594 26.8655 28.6905 26.4923 28.5045C26.1191 28.3186 24.9165 27.9264 23.4909 26.6609C22.3814 25.676 21.6323 24.4595 21.4146 24.0877C21.1969 23.7158 21.3914 23.5148 21.5783 23.3296C21.7461 23.1632 21.9515 22.8958 22.1381 22.6789C22.3247 22.462 22.3869 22.307 22.5113 22.0592C22.6357 21.8113 22.5735 21.5943 22.4802 21.4084C22.3869 21.2225 21.6405 19.3942 21.3295 18.6505C21.0265 17.9262 20.7188 18.0242 20.4897 18.0128C20.2723 18.0021 20.0232 17.9998 19.7744 17.9998C19.5256 17.9998 19.1213 18.0928 18.7791 18.4646C18.437 18.8364 17.4728 19.7351 17.4728 21.5633C17.4728 23.3916 18.8102 25.1579 18.9968 25.4058C19.1835 25.6537 21.6287 29.4056 25.3727 31.0145C26.2631 31.3972 26.9584 31.6257 27.5004 31.797C28.3945 32.0796 29.2081 32.0398 29.8512 31.9441C30.5683 31.8375 32.0594 31.0455 32.3705 30.1778C32.6814 29.3102 32.6814 28.5665 32.5882 28.4116C32.4949 28.2566 32.2461 28.1636 31.8728 27.9777ZM25.0628 37.2315H25.0577C22.8299 37.2306 20.6449 36.6351 18.7387 35.5093L18.2854 35.2414L13.5865 36.4682L14.8407 31.9087L14.5455 31.4413C13.3027 29.4741 12.6463 27.2003 12.6473 24.8657C12.65 18.0531 18.2195 12.5107 25.0677 12.5107C28.3838 12.5119 31.501 13.7989 33.845 16.1343C36.1891 18.4698 37.4793 21.5742 37.478 24.8757C37.4752 31.6887 31.9057 37.2315 25.0628 37.2315ZM35.6291 14.3597C32.8089 11.5498 29.0584 10.0016 25.0626 9.99998C16.8294 9.99998 10.1286 16.6683 10.1253 24.8647C10.1242 27.4848 10.812 30.0423 12.1191 32.2966L10 40L17.9185 37.9329C20.1002 39.1171 22.5566 39.7412 25.0566 39.7423H25.0627H25.0628C33.2952 39.7423 39.9966 33.0731 40 24.8766C40.0015 20.9045 38.4493 17.1695 35.6291 14.3597Z" fill="#F5FDFA"/>
</g>
</svg>
